<svg width="34" height="34" viewBox="0 0 34 34" fill="none" xmlns="http://www.w3.org/2000/svg">
<path d="M10.6016 10.0574C15.6239 10.0574 18.9249 11.7086 20.5048 15.011C21.4194 13.1597 22.9078 11.7649 24.9699 10.8267C26.7992 10.0136 28.9279 9.60706 31.3558 9.60706H34V20.7903H0L0 19.8146C0 16.5121 0.831499 14.0791 2.4945 12.5155C4.24065 10.8767 6.94302 10.0574 10.6016 10.0574ZM0.0498899 34L0.0498899 23.9051H34V34H0.0498899Z" fill="#03F8F8"/>
<path d="M10.6016 0.45033C15.6239 0.45033 18.9249 2.10154 20.5048 5.40397C21.4194 3.55261 22.9078 2.15784 24.9699 1.21965C26.7992 0.406547 28.9279 -1.46311e-06 31.3558 -1.46311e-06H34V11.1832L0 11.1832L0 10.2075C0 6.90508 0.831499 4.47204 2.4945 2.90839C4.24065 1.26968 6.94302 0.45033 10.6016 0.45033ZM0.0498899 24.3929L0.0498899 14.298L34 14.298V24.3929L0.0498899 24.3929Z" fill="#CF22BA"/>
</svg>
